<svg version="1.1" xmlns="http://www.w3.org/2000/svg" xmlns:xlink="http://www.w3.org/1999/xlink" width="399.41231" height="387.23096" viewBox="0,0,399.41231,387.23096"><g transform="translate(-50.91814,-37.50453)"><g data-paper-data="{&quot;isPaintingLayer&quot;:true}" fill-rule="nonzero" stroke-linejoin="miter" stroke-miterlimit="10" stroke-dasharray="" stroke-dashoffset="0" style="mix-blend-mode: normal"><path d="M333.57291,270.45638c-0.01529,3.34545 -0.06022,6.99294 -0.06022,7.73563c0,21.15465 -17.27239,35.23552 -43.39699,42.63038c-14.45053,4.09039 -31.6095,6.1351 -50.05188,6.19978h-0.06404h-0.06309c-51.78371,-0.18161 -93.46321,-15.97404 -93.46321,-48.83016c0,-0.72931 -0.04301,-4.39209 -0.05735,-7.73563l31.1098,2.99943l1.0715,15.35369c0.12904,1.85051 1.60104,3.32346 3.45155,3.45633l36.8525,2.62952c1.94227,0.14242 3.66661,-1.24451 3.9505,-3.1734l2.11337,-14.3319h30.06984l2.11337,14.3319c0.2705,1.83904 1.85051,3.18295 3.6819,3.18295c0.08889,0 0.17874,-0.00287 0.26859,-0.00956l36.8525,-2.62952c1.85051,-0.13286 3.32251,-1.60581 3.45155,-3.45633l1.0715,-15.35369z" fill="#478cbf" stroke="none" stroke-width="0.32031" stroke-linecap="butt"/><path d="M328.50065,330.95342c-12.48585,4.54057 -47.26769,-4.81279 -47.26769,-4.81279l-5.66667,-4.33333c0,0 8.22528,-0.6538 16.4678,-3.98392c6.90104,-2.78814 13.51515,-6.01608 18.19887,-6.01608c6.71886,0 23.5,-25.5 23.5,-25.5c0,0 2.39182,41.87356 -5.23231,44.64612z" data-paper-data="{&quot;index&quot;:null}" fill="#1e4059" stroke="none" stroke-width="0" stroke-linecap="butt"/><path d="M149.06629,290.80729c0,0 19.28115,25 26,25c4.68371,0 11.29782,3.22793 18.19886,6.01608c8.24253,3.33013 16.4678,3.98392 16.4678,3.98392l-5.66667,4.33333c0,0 -34.78183,9.35336 -47.26768,4.81279c-7.62413,-2.77257 -7.73231,-44.14612 -7.73231,-44.14612z" fill="#1e4059" stroke="none" stroke-width="0" stroke-linecap="butt"/><path d="M146.34514,206.55763c-4.58231,-5.84975 -8.82625,-12.01398 -12.89144,-18.59018c5.40338,-9.1952 12.0178,-17.41258 19.09199,-25.02586c6.56281,3.30243 12.9335,7.0436 18.95244,11.02468c3.01281,-2.9937 6.41083,-5.44257 9.73812,-8.00231c3.27472,-2.62952 6.95949,-4.55746 10.46552,-6.80369c-1.04474,-7.75857 -1.55993,-15.39671 -1.7664,-23.36843c9.02793,-4.54407 18.65708,-7.55689 28.39138,-9.72092c3.8941,6.53509 7.44792,13.61215 10.54294,20.53053c3.6733,-0.61365 7.35999,-0.84114 11.06101,-0.88511v-0.00573c0.02294,0 0.04684,0.00573 0.06978,0.00573c0.02198,0 0.04588,-0.00573 0.07169,-0.00573v0.00573c3.69433,0.04397 7.38388,0.27146 11.05623,0.88511c3.09693,-6.91839 6.65266,-13.99544 10.54103,-20.53053c9.73908,2.16403 19.36727,5.17684 28.39616,9.72092c-0.20742,7.97172 -0.72262,15.60986 -1.76448,23.36843c3.49934,2.24623 7.18889,4.17416 10.46265,6.80369c3.33207,2.55974 6.72435,5.00861 9.73621,8.00231c6.01894,-3.98108 12.39154,-7.72225 18.95244,-11.02468c7.07419,7.61328 13.69244,15.83066 19.0939,25.02586c-4.06711,6.57619 -8.30818,12.74042 -12.89144,18.59018h-0.12808v51.92613l-0.01434,0.00478v4.50297c-0.10323,0.00096 -0.20551,0.00478 -0.30778,0.01434l-34.58428,3.33589c-1.81228,0.17587 -3.2317,1.63354 -3.35883,3.44964l-1.06576,15.27245l-30.18072,2.15351l-2.07896,-14.09581c-0.26955,-1.82757 -1.83713,-3.182 -3.68477,-3.182h-36.5017c-1.8486,0 -3.41618,1.35443 -3.68573,3.182l-2.07896,14.09581l-30.17976,-2.15351l-1.06672,-15.27245c-0.12617,-1.8161 -1.54655,-3.27472 -3.35883,-3.44964l-34.59766,-3.33589c-0.10228,-0.00956 -0.20551,-0.01338 -0.30874,-0.01434v-5.24949v-5.76851v-45.41589z" fill="#478cbf" stroke="none" stroke-width="0.32031" stroke-linecap="butt"/><path d="M333.56067,270.45668l-29.29178,4.74671l-0.95871,13.73928c-0.19404,2.7815 -2.43931,5.0306 -5.22177,5.23037l-36.85345,2.62857c-0.13286,0.00956 -0.26859,0.01434 -0.40432,0.01434c-2.7729,0 -5.16919,-2.07035 -5.57352,-4.81458l-1.87249,-12.69932h-26.76836l-1.87249,12.69932c-0.40528,2.74518 -2.79871,4.81553 -5.56778,4.81553c-0.13764,0 -0.27528,-0.00573 -0.41483,-0.01529l-36.84867,-2.62857c-2.78341,-0.19977 -5.02773,-2.44887 -5.22177,-5.23037l-0.95967,-13.73928l-29.30421,-4.72568l0.04684,-7.48424c0.17874,0 0.30969,-1.90786 0.48844,-1.89066l34.60149,3.33589c2.75187,0.26572 4.88913,2.46034 5.08221,5.2189l0.95011,13.61788l26.75594,1.90882l1.82088,-12.34183c0.40528,-2.74518 2.80253,-4.81458 5.57638,-4.81458h36.5017c2.77481,0 5.17206,2.0694 5.57734,4.81458l1.81992,12.34183l26.75594,-1.90882l0.95011,-13.61788c0.19308,-2.75761 2.33034,-4.95222 5.08221,-5.21794l34.58428,-3.33685c0.18161,-0.0172 0.49226,1.88874 0.49226,1.88874z" fill="#ffffff" stroke="#000000" stroke-width="4.5" stroke-linecap="butt"/><path d="M103.27735,326.96094c0,0 -1.85414,-38.68804 2.16403,-59.01996c4.29651,-21.74035 22.83597,-67.48004 22.83597,-67.48004c0,0 14.13828,-25.77554 34.09588,-43.94393c18.39704,-24.75466 55.05314,-36.7232 65.60292,-39.21412c15.99168,-3.77581 19.30121,0.65805 19.30121,0.65805c0,0 12.67777,2.4974 26.70715,10.51218c7.6653,4.37907 16.62965,10.40521 26.02433,18.57102c23.94051,20.80895 48.62207,58.3522 48.36933,68.88322c-0.02666,1.11078 13.97677,24.43915 20.92181,48.48826c7.39364,25.60255 7.65443,52.02196 4.02303,53.32084c-3.90708,1.39749 -8.98059,6.1144 -16.94182,8.34503c-13.38283,3.74969 -30.36131,5.03814 -30.36131,5.03814c0,0 9.03205,-24.74074 8.47665,-38.93682c-0.67035,-17.13419 -12.21916,-56.72186 -12.21916,-56.72186c0,0 -19.53953,-46.1517 -46.59032,-71.43645c-20.0817,-18.77065 -47.14592,-21.32792 -58.42251,-9.84418c-3.04084,3.0967 -18.48903,8.71784 -29.93247,21.52622c-15.45309,17.29628 -28.13285,44.81641 -35.71202,69.80505c-12.86463,42.4149 6.35448,87.86507 1.40189,88.93133c-15.74281,3.38933 -49.74457,-7.48196 -49.74457,-7.48196z" fill="#ecb763" stroke="#000000" stroke-width="0" stroke-linecap="butt"/><path d="M56.37676,288.15101c0,0 -4.58788,-10.32882 -5.2411,-22.9445c-0.62749,-12.11865 2.64839,-26.34753 4.06623,-35.55823c2.21899,-14.4152 12.55723,-44.67373 12.55723,-44.67373c0,0 7.40905,-19.24112 21.43007,-42.83739c6.31757,-10.63198 11.98506,-23.34361 22.38694,-33.49875c15.21424,-14.85334 27.99985,-29.38719 43.08632,-40.42218c21.78273,-15.93298 46.73501,-25.65656 77.06266,-27.62086c1.54911,-0.10034 -0.40366,1.58619 1.20177,1.5306c1.36691,-0.04733 2.75469,-1.25475 4.16413,-1.26907c7.66583,-0.07785 24.15066,-0.09737 38.45577,6.7535c26.14337,12.52033 51.88882,35.59945 51.88882,35.59945c0,0 31.53689,35.00253 55.91274,73.27007c25.90149,40.66265 44.70468,84.85992 43.62464,89.33844c-0.81998,3.4002 0.57304,21.69087 -10.85249,40.56099c-8.88016,14.66626 -40.44577,29.05874 -40.44577,29.05874c0,0 0.95328,-28.50476 -10.50499,-66.1396c-7.15496,-23.50055 -21.82562,-51.87103 -35.42188,-71.03065c-9.28953,-13.09065 -19.95931,-21.8815 -19.95931,-21.8815c0,0 -16.06637,-18.48081 -30.21362,-27.35507c-18.16649,-11.39545 -36.22222,-13.8214 -45.42509,-13.8214c-14.17674,0 -35.24428,7.04889 -61.54529,29.71589c-10.45288,9.0086 -16.28384,23.45606 -31.14244,36.37838c-3.33958,2.90439 -24.6201,31.33966 -30.95982,62.08523c-2.55916,12.41109 -7.74183,45.78688 -8.16996,57.42348c-0.88986,24.18692 5.08952,22.81323 2.00529,23.33974c-9.33665,1.59387 -22.28481,-3.99503 -30.72968,-11.66216c-11.54626,-10.48289 -17.23116,-24.33939 -17.23116,-24.33939z" fill="#2e5674" stroke="none" stroke-width="0" stroke-linecap="butt"/><path d="M211.80538,229.46602c0,11.51981 -9.3338,20.8517 -20.84979,20.8517c-11.51025,0 -20.84692,-9.33189 -20.84692,-20.8517c0,-11.51216 9.33667,-20.83927 20.84692,-20.83927c11.51599,0 20.84979,9.32711 20.84979,20.83927" fill="#ffffff" stroke="#000000" stroke-width="4.5" stroke-linecap="butt"/><path d="M205.03852,232.07684c0,6.46776 -5.24202,11.70978 -11.71464,11.70978c-6.46939,0 -11.71464,-5.24202 -11.71464,-11.70978c0,-6.46776 5.24525,-11.71464 11.71464,-11.71464c6.47262,0 11.71464,5.24688 11.71464,11.71464" fill="#414042" stroke="#000000" stroke-width="0" stroke-linecap="butt"/><path d="M239.99848,252.21468c-3.70676,0 -6.71097,-2.7318 -6.71097,-6.09923v-19.19427c0,-3.36456 3.00421,-6.09923 6.71097,-6.09923c3.70676,0 6.71766,2.73466 6.71766,6.09923v19.19427c0,3.36743 -3.0109,6.09923 -6.71766,6.09923" fill="#ffffff" stroke="#000000" stroke-width="4.5" stroke-linecap="butt"/><path d="M268.19506,229.46602c0,-11.51216 9.3338,-20.83927 20.8517,-20.83927c11.5093,0 20.84501,9.32711 20.84501,20.83927c0,11.51981 -9.33571,20.8517 -20.84501,20.8517c-11.5179,0 -20.8517,-9.33189 -20.8517,-20.8517" fill="#ffffff" stroke="#000000" stroke-width="4.5" stroke-linecap="butt"/><path d="M53.16814,240.03229c5.5042,-56.48826 70.84406,-203.07371 185.47639,-200.23717c101.43279,-3.05951 176.82439,174.3571 183.35551,189.09261c7.67516,21.41445 2.94671,51.39684 -19.8259,72.21843c-17.00545,15.54852 -47.39403,24.66024 -72.24706,28.45961c-20.85722,8.36589 -49.71882,-5.20159 -49.71882,-5.20159c0,0 55.41184,-20.86289 52.02058,-42.72633c-1.8874,-38.6744 -11.50878,-51.4796 -22.81426,-75.53684c-12.28568,-19.0845 -22.99924,-32.16739 -33.71707,-42.11172c-13.37275,-12.40764 -24.27109,-19.00126 -43.052,-15.53402c-52.69799,5.69735 -90.68879,95.9248 -84.78098,129.35281c1.84876,12.68271 11.07572,28.64954 25.42844,36.20191c18.57303,9.77308 26.91484,9.27817 36.91992,11.72379c-3.15011,8.54708 -43.57403,11.37435 -71.85898,6.92309c-24.3698,-4.6861 -57.22915,-10.70309 -72.21626,-28.02723c-16.80399,-19.42435 -14.2272,-50.74608 -12.96949,-64.59736z" fill="none" stroke="#000000" stroke-width="4.5" stroke-linecap="butt"/><path d="M155.76164,334.27529c0,0 -8.65595,-5.57371 -8.52362,-69.23717c12.43279,-73.0595 54.82439,-116.64291 93.35551,-116.90739c13.10197,-0.13531 22.46242,1.7596 40.12615,20.66729c5.36888,4.32969 17.95668,19.2189 27.00502,35.07869c0.69878,1.22481 1.39435,2.46335 2.08454,3.71245c10.62223,19.22402 19.9682,40.94746 20.05865,53.54778c11.76996,33.66294 -4.58673,70.30231 -4.58673,70.30231c0,0 21.11444,-3.1911 29.61974,-5.685c6.43527,-1.88693 0.78183,0.85094 16.9565,-6.97193c6.44665,-3.11792 4.48333,-22.92265 0.16856,-46.75684c-6.53226,-27.77681 -21.85973,-59.17232 -32.00783,-75.98495c-24.99205,-41.40501 -66.11374,-81.23779 -102.77762,-79.67257c-58.69799,-4.30266 -120.02363,90.58847 -126.78248,126.68314c-1.1815,6.63627 -6.20031,27.56565 -8.67185,45.81959c-2.46667,18.21799 2.61178,36.76713 2.61178,36.76713c0,0 20.33879,5.08391 29.12642,6.56167c8.30649,1.39684 22.23727,2.07581 22.23727,2.07581z" fill="none" stroke="#000000" stroke-width="4.5" stroke-linecap="butt"/><path d="M206.77735,325.21094c0,0 15.03905,2.89088 25.0022,2.82311c5.57652,-0.03794 15.36625,-0.28588 24.92317,-1.14925c13.52028,-1.22142 31.07464,-4.67386 31.07464,-4.67386" fill="none" stroke="#000000" stroke-width="4.5" stroke-linecap="round"/><path d="M298.53852,231.82684c0,6.46776 -5.24202,11.70978 -11.71464,11.70978c-6.46939,0 -11.71464,-5.24202 -11.71464,-11.70978c0,-6.46776 5.24525,-11.71464 11.71464,-11.71464c6.47262,0 11.71464,5.24688 11.71464,11.71464" fill="#414042" stroke="#000000" stroke-width="0" stroke-linecap="butt"/><path d="M415.61,422.43775c0,0 -7.86036,-187.20114 -11.45773,-241.88417c-1.84554,-28.05382 -8.64495,-63.69338 -8.64495,-63.69338c0,0 17.44601,-19.2524 26.0239,-19.29701c8.87023,-0.04613 26.34985,19.02461 26.34985,19.02461c0,0 -7.6319,34.56326 -8.93462,62.6552c-2.53568,54.67971 -5.23027,242.79825 -5.23027,242.79825z" fill="#414042" stroke="#000000" stroke-width="4.5" stroke-linecap="butt"/><path d="M397.11751,99.01414c-4.96903,-13.47224 1.92419,-28.42184 15.39643,-33.39086c13.47224,-4.96903 28.42184,1.92419 33.39086,15.39643c4.96903,13.47224 -1.92419,28.42184 -15.39643,33.39086c-13.47224,4.96903 -28.42184,-1.92419 -33.39086,-15.39643z" fill="#74b5ab" stroke="#000000" stroke-width="4.5" stroke-linecap="butt"/><path d="M425.30307,87.32003c2.12095,5.75042 -0.92029,12.16793 -6.79281,14.33392c-5.87251,2.16599 -12.3525,-0.73977 -14.47345,-6.49019c-2.12095,-5.75042 0.92029,-12.16793 6.79281,-14.33392c5.87251,-2.16599 12.3525,0.73977 14.47345,6.49019z" fill="#b7e6df" stroke="#000000" stroke-width="0" stroke-linecap="butt"/></g></g></svg>