<svg version="1.1" xmlns="http://www.w3.org/2000/svg" xmlns:xlink="http://www.w3.org/1999/xlink" width="352.30884" height="301.74357" viewBox="0,0,352.30884,301.74357"><g transform="translate(-62.75791,-48.76655)"><g data-paper-data="{&quot;isPaintingLayer&quot;:true}" fill-rule="nonzero" stroke-linejoin="miter" stroke-miterlimit="10" stroke-dasharray="" stroke-dashoffset="0" style="mix-blend-mode: normal"><path d="M303.68063,247.02335c-0.01294,2.83146 -0.05097,5.91854 -0.05097,6.54713c0,17.90445 -14.61866,29.82193 -36.72947,36.08065c-12.23035,3.46194 -26.75302,5.1925 -42.36191,5.24725h-0.0542h-0.0534c-43.82766,-0.15371 -79.10352,-13.51979 -79.10352,-41.32789c0,-0.61726 -0.0364,-3.71729 -0.04853,-6.54713l26.33008,2.5386l0.90687,12.99474c0.10922,1.5662 1.35505,2.81284 2.92126,2.9253l31.19048,2.22552c1.64386,0.12054 3.10327,-1.0533 3.34355,-2.68583l1.78867,-12.12995h25.44991l1.78868,12.12995c0.22894,1.55649 1.56619,2.69392 3.11621,2.69392c0.07523,0 0.15128,-0.00243 0.22733,-0.00809l31.19048,-2.22552c1.5662,-0.11244 2.81204,-1.35909 2.92126,-2.9253l0.90688,-12.99475z" fill="#478cbf" stroke="none" stroke-width="0.32031" stroke-linecap="butt"/><path d="M299.38767,298.22563c-10.56752,3.84296 -40.00548,-4.07336 -40.00548,-4.07336l-4.79604,-3.66755c0,0 6.96155,-0.55335 13.93769,-3.37183c5.84076,-2.35977 11.43868,-5.09177 15.40279,-5.09177c5.68658,0 19.88946,-21.58218 19.88946,-21.58218c0,0 2.02434,35.44011 -4.42842,37.78669z" data-paper-data="{&quot;index&quot;:null}" fill="#1e4059" stroke="none" stroke-width="0" stroke-linecap="butt"/><path d="M147.52161,264.24754c0,0 16.31879,21.159 22.00536,21.159c3.9641,0 9.56202,2.73199 15.40279,5.09177c6.97615,2.81849 13.93769,3.37183 13.93769,3.37183l-4.79604,3.66756c0,0 -29.43795,7.91631 -40.00547,4.07335c-6.45276,-2.34659 -6.54432,-37.36351 -6.54432,-37.36351z" fill="#1e4059" stroke="none" stroke-width="0" stroke-linecap="butt"/><path d="M145.21854,192.94201c-3.87829,-4.951 -7.47018,-10.16816 -10.9108,-15.73399c4.57321,-7.78245 10.17138,-14.73731 16.15869,-21.18088c5.5545,2.79504 10.9464,5.96142 16.04059,9.33085c2.54992,-2.53375 5.42587,-4.60638 8.24195,-6.77284c2.77159,-2.22552 5.89023,-3.85725 8.8576,-5.75837c-0.88422,-6.56654 -1.32026,-13.03116 -1.49501,-19.77811c7.64088,-3.84592 15.79061,-6.39585 24.02933,-8.2274c3.29581,5.53104 6.30362,11.52078 8.92312,17.37622c3.10894,-0.51937 6.2292,-0.71191 9.36159,-0.74912v-0.00485c0.01942,0 0.03964,0.00485 0.05906,0.00485c0.01861,0 0.03883,-0.00485 0.06068,-0.00485v0.00485c3.12673,0.03722 6.24942,0.22975 9.35755,0.74912c2.62112,-5.85545 5.63055,-11.84518 8.92151,-17.37622c8.24276,1.83155 16.39168,4.38147 24.03337,8.2274c-0.17555,6.74695 -0.61159,13.21156 -1.49338,19.77811c2.9617,1.90112 6.08439,3.53284 8.85517,5.75837c2.82013,2.16646 5.69122,4.23909 8.24034,6.77284c5.09419,-3.36943 10.48771,-6.53581 16.04059,-9.33085c5.98731,6.44358 11.58873,13.39843 16.16031,21.18088c-3.44224,5.56582 -7.03171,10.78298 -10.9108,15.73399h-0.1084v43.9482l-0.01214,0.00404v3.81114c-0.08737,0.00081 -0.17394,0.00404 -0.26049,0.01214l-29.27075,2.82336c-1.53384,0.14885 -2.73518,1.38256 -2.84278,2.91963l-0.90201,12.92599l-25.54376,1.82265l-1.75955,-11.93013c-0.22814,-1.54678 -1.55487,-2.69312 -3.11864,-2.69312h-30.89357c-1.56458,0 -2.89132,1.14633 -3.11946,2.69312l-1.75955,11.93013l-25.54294,-1.82265l-0.90283,-12.92599c-0.10679,-1.53707 -1.30894,-2.77159 -2.84278,-2.91963l-29.28207,-2.82336c-0.08657,-0.00809 -0.17394,-0.01132 -0.2613,-0.01214v-4.44296v-4.88224v-38.43819z" fill="#478cbf" stroke="none" stroke-width="0.32031" stroke-linecap="butt"/><path d="M303.67027,247.02361l-24.79139,4.01743l-0.81141,11.62838c-0.16423,2.35415 -2.06453,4.2577 -4.4195,4.42677l-31.19128,2.22472c-0.11245,0.00809 -0.22732,0.01214 -0.3422,0.01214c-2.34687,0 -4.375,-1.75226 -4.71721,-4.07487l-1.5848,-10.7482h-22.65567l-1.5848,10.7482c-0.34302,2.32341 -2.36872,4.07567 -4.71234,4.07567c-0.11649,0 -0.23299,-0.00485 -0.3511,-0.01294l-31.18724,-2.22472c-2.35576,-0.16908 -4.25526,-2.07262 -4.41949,-4.42677l-0.81223,-11.62838l-24.80191,-3.99962l0.03964,-6.33437c0.15128,0 0.26211,-1.61473 0.4134,-1.60018l29.28531,2.82336c2.32907,0.2249 4.13797,2.08234 4.30138,4.41707l0.80414,11.52563l22.64516,1.61554l1.54112,-10.44563c0.34302,-2.32341 2.37195,-4.07486 4.71963,-4.07486h30.89358c2.34849,0 4.37742,1.75145 4.72043,4.07486l1.54031,10.44563l22.64516,-1.61554l0.80413,-11.52563c0.16341,-2.33393 1.97231,-4.19136 4.30138,-4.41625l29.27075,-2.82418c0.15371,-0.01456 0.41663,1.59855 0.41663,1.59855z" fill="#ffffff" stroke="#000000" stroke-width="3.5" stroke-linecap="butt"/><path d="M108.76769,294.84656c0,0 -1.56927,-32.74401 1.83155,-49.95214c3.63639,-18.40016 19.32745,-57.1124 19.32745,-57.1124c0,0 11.96608,-21.81538 28.85739,-37.19238c15.57052,-20.95136 46.59478,-31.08105 55.52369,-33.18926c13.53472,-3.1957 16.33577,0.55695 16.33577,0.55695c0,0 10.72996,2.1137 22.60387,8.89709c6.48761,3.70627 14.07467,8.80655 22.02595,15.71777c20.26229,17.61186 41.15177,49.38697 40.93786,58.3c-0.02256,0.94012 11.82938,20.68431 17.70738,41.03852c6.25768,21.66898 6.47841,44.0293 3.40494,45.12862c-3.3068,1.18278 -7.60082,5.17498 -14.33888,7.0629c-11.32669,3.17359 -25.6966,4.26408 -25.6966,4.26408c0,0 7.64437,-20.93957 7.1743,-32.95456c-0.56736,-14.5017 -10.34181,-48.00711 -10.34181,-48.00711c0,0 -16.53748,-39.06096 -39.43218,-60.46096c-16.99634,-15.88673 -39.90242,-18.0511 -49.44647,-8.33172c-2.57364,2.62092 -15.64838,7.37843 -25.33365,18.21893c-13.07888,14.63888 -23.81051,37.93082 -30.22522,59.0802c-10.88811,35.89828 5.37817,74.36547 1.1865,75.26791c-13.32408,2.8686 -42.10181,-6.33243 -42.10181,-6.33243z" fill="#ecb763" stroke="#000000" stroke-width="0" stroke-linecap="butt"/><path d="M69.07291,261.99938c0,0 -3.883,-8.7419 -4.43586,-19.4193c-0.53108,-10.25674 2.24149,-22.29949 3.4415,-30.09506c1.87807,-12.20045 10.62794,-37.81006 10.62794,-37.81006c0,0 6.27072,-16.28491 18.13755,-36.25585c5.34694,-8.99848 10.14367,-19.7571 18.94741,-28.352c12.87672,-12.57127 23.69796,-24.87214 36.46654,-34.21171c18.43603,-13.48503 39.55464,-21.71469 65.22275,-23.37719c1.3111,-0.08492 -0.34164,1.34249 1.01713,1.29544c1.1569,-0.04006 2.33146,-1.06197 3.52435,-1.07409c6.48805,-0.06589 20.44016,-0.08241 32.54743,5.71589c22.1267,10.59671 43.91662,30.12995 43.91662,30.12995c0,0 26.69156,29.62474 47.3223,62.01286c21.92199,34.41524 37.83625,71.82204 36.92215,75.61248c-0.694,2.87779 0.485,18.35828 -9.18511,34.3292c-7.51581,12.41294 -34.23168,24.59416 -34.23168,24.59416c0,0 0.80682,-24.12529 -8.891,-55.97791c-6.05567,-19.88993 -18.47233,-43.90157 -29.97967,-60.1175c-7.86228,-11.0794 -16.89276,-18.51962 -16.89276,-18.51962c0,0 -13.59793,-15.64141 -25.57159,-23.15224c-15.37539,-9.64465 -30.65704,-11.69788 -38.44598,-11.69788c-11.99863,0 -29.82935,5.9659 -52.08947,25.15034c-8.8469,7.62452 -13.78199,19.85227 -26.35771,30.7892c-2.82648,2.45816 -20.83747,26.52463 -26.20315,52.54645c-2.16597,10.50425 -6.55238,38.75218 -6.91473,48.60093c-0.75314,20.47084 4.30757,19.30821 1.6972,19.75383c-7.90216,1.34899 -18.86097,-3.38124 -26.00837,-9.87039c-9.77229,-8.8723 -14.58376,-20.59988 -14.58376,-20.59988z" fill="#2e5674" stroke="none" stroke-width="0" stroke-linecap="butt"/><path d="M200.62147,212.33076c0,9.74991 -7.89975,17.64804 -17.64642,17.64804c-9.74182,0 -17.644,-7.89814 -17.644,-17.64804c0,-9.74343 7.90219,-17.63753 17.644,-17.63753c9.74668,0 17.64642,7.8941 17.64642,17.63753" fill="#ffffff" stroke="#000000" stroke-width="0" stroke-linecap="butt"/><path d="M194.89427,214.54045c0,5.47405 -4.43663,9.91069 -9.9148,9.91069c-5.47544,0 -9.9148,-4.43664 -9.9148,-9.91069c0,-5.47405 4.43937,-9.91481 9.9148,-9.91481c5.47816,0 9.9148,4.44075 9.9148,9.91481" fill="#414042" stroke="#000000" stroke-width="0" stroke-linecap="butt"/><path d="M224.48298,231.58431c-3.13726,0 -5.6799,-2.31208 -5.6799,-5.16214v-16.24526c0,-2.84763 2.54264,-5.16215 5.6799,-5.16215c3.13726,0 5.68555,2.31451 5.68555,5.16215v16.24526c0,2.85006 -2.5483,5.16214 -5.68555,5.16214" fill="#ffffff" stroke="#000000" stroke-width="3.5" stroke-linecap="butt"/><path d="M248.34744,212.33076c0,-9.74343 7.89975,-17.63753 17.64804,-17.63753c9.74101,0 17.64238,7.8941 17.64238,17.63753c0,9.74991 -7.90137,17.64804 -17.64238,17.64804c-9.74829,0 -17.64804,-7.89814 -17.64804,-17.64804" fill="#ffffff" stroke="#000000" stroke-width="0" stroke-linecap="butt"/><path d="M66.35725,221.27363c4.65854,-47.8094 59.95958,-171.87346 156.9798,-169.47273c85.84865,-2.58944 149.65709,147.56887 155.18477,160.04042c6.49595,18.12434 2.49397,43.50022 -16.77985,61.12278c-14.39273,13.15965 -40.11241,20.87144 -61.14702,24.08708c-17.65271,7.08056 -42.08002,-4.40242 -42.08002,-4.40242c0,0 46.89837,-17.65751 44.02814,-36.16186c-1.59742,-32.73246 -9.74057,-43.57027 -19.30908,-63.93136c-10.39811,-16.15235 -19.46564,-27.22519 -28.53678,-35.64167c-11.31816,-10.50133 -20.54208,-16.08191 -36.43749,-13.14737c-44.60147,4.82201 -76.75536,81.18691 -71.75523,109.47904c1.56472,10.73414 9.37404,24.24782 21.52161,30.63984c15.71947,8.27155 22.77964,7.85267 31.24754,9.92255c-2.66612,7.2339 -36.87931,9.6268 -60.81856,5.85942c-20.62562,-3.96612 -48.43646,-9.05866 -61.12095,-23.72112c-14.22223,-16.43999 -12.04133,-42.94945 -10.97685,-54.67262z" fill="none" stroke="#000000" stroke-width="6" stroke-linecap="butt"/><path d="M153.1883,301.03713c0,0 -11.79046,-0.57465 -18.82074,-1.75688c-7.4375,-1.25072 -24.65143,-5.55354 -24.65143,-5.55354c0,0 -4.2982,-15.69925 -2.21051,-31.11822c2.09181,-15.44941 6.33953,-33.16319 7.33951,-38.77987c5.72042,-30.54908 57.62399,-110.86114 107.30362,-107.21954c31.03084,-1.32474 65.83459,32.38813 86.98686,67.43168c8.58895,14.22953 21.5615,40.80144 27.09015,64.31062c3.65185,20.1723 5.31353,36.93423 -0.14266,39.57311c-13.68959,6.62097 -8.90475,4.30375 -14.35131,5.90077c-7.19855,2.11073 -25.06896,4.81155 -25.06896,4.81155c0,0 13.84365,-31.0101 3.88202,-59.50106c-0.07655,-10.6644 -7.98661,-29.05026 -16.97684,-45.3207c-0.58415,-1.05719 -1.17285,-2.10544 -1.76427,-3.14207c-7.65816,-13.42309 -18.31196,-26.02472 -22.85597,-29.6892c-14.94987,-16.00271 -22.87218,-17.60649 -33.96116,-17.49197c-32.6112,0.22385 -68.48975,37.1111 -79.01236,98.94574c-0.112,53.8822 7.21405,58.59957 7.21405,58.59957z" fill="none" stroke="#000000" stroke-width="6" stroke-linecap="butt"/><path d="M264.92111,290.82635c0,0 -14.8573,2.92201 -26.30033,3.95576c-8.08859,0.73072 -16.37423,0.94057 -21.09397,0.97268c-8.43241,0.05736 -21.16086,-2.38936 -21.16086,-2.38936" fill="none" stroke="#000000" stroke-width="4.5" stroke-linecap="round"/><path d="M274.02893,214.32886c0,5.47405 -4.43664,9.91069 -9.91481,9.91069c-5.47544,0 -9.9148,-4.43664 -9.9148,-9.91069c0,-5.47405 4.43937,-9.91481 9.9148,-9.91481c5.47816,0 9.91481,4.44075 9.91481,9.91481" fill="#414042" stroke="#000000" stroke-width="0" stroke-linecap="butt"/><path d="M361.65077,346.4179c0,0 7.94998,-114.90445 8.73603,-161.27935c0.40326,-23.79154 -2.84195,-54.32752 -2.84195,-54.32752c0,0 16.06025,-15.02002 23.29857,-14.45836c7.48501,0.58079 20.89623,17.88761 20.89623,17.88761c0,0 -8.85198,28.61994 -11.91339,52.22367c-5.95887,45.94363 -22.87574,160.88449 -22.87574,160.88449z" fill="#414042" stroke="#000000" stroke-width="6" stroke-linecap="butt"/><path d="M370.14978,115.87087c-3.25002,-11.7106 3.60863,-23.83858 15.31924,-27.08859c11.7106,-3.25002 23.83859,3.60864 27.08861,15.31924c3.25002,11.7106 -3.60864,23.83858 -15.31925,27.0886c-11.7106,3.25002 -23.83859,-3.60864 -27.0886,-15.31924z" fill="#74b5ab" stroke="#000000" stroke-width="4.5" stroke-linecap="butt"/><path d="M394.02547,109.81543c1.79508,4.86692 -0.7789,10.29845 -5.74917,12.13165c-4.97026,1.83321 -10.45467,-0.62611 -12.24975,-5.49304c-1.79508,-4.86692 0.7789,-10.29845 5.74917,-12.13166c4.97026,-1.83321 10.45467,0.62612 12.24975,5.49304z" fill="#b7e6df" stroke="#000000" stroke-width="0" stroke-linecap="butt"/></g></g></svg>