<svg version="1.1" xmlns="http://www.w3.org/2000/svg" xmlns:xlink="http://www.w3.org/1999/xlink" width="218.34666" height="205.75081" viewBox="0,0,218.34666,205.75081"><defs><linearGradient x1="239.99453" y1="270.45639" x2="239.99453" y2="327.02218" gradientUnits="userSpaceOnUse" id="color-1"><stop offset="0" stop-color="#e0ebf3"/><stop offset="1" stop-color="#bad1e7"/></linearGradient><linearGradient x1="240.00002" y1="126.07093" x2="240.00002" y2="287.21735" gradientUnits="userSpaceOnUse" id="color-2"><stop offset="0" stop-color="#e0ebf3"/><stop offset="1" stop-color="#bad1e7"/></linearGradient></defs><g transform="translate(-130.8267,-123.52138)"><g data-paper-data="{&quot;isPaintingLayer&quot;:true}" fill-rule="nonzero" stroke="#000000" stroke-width="4.5" stroke-linecap="butt" stroke-linejoin="miter" stroke-miterlimit="10" stroke-dasharray="" stroke-dashoffset="0" style="mix-blend-mode: normal"><path d="M333.57292,270.45639c-0.01529,3.34545 -0.06022,6.99294 -0.06022,7.73563c0,21.15465 -17.27239,35.23552 -43.39699,42.63038c-14.45053,4.09039 -31.6095,6.1351 -50.05188,6.19978h-0.06404h-0.06309c-51.78371,-0.18161 -93.46321,-15.97404 -93.46321,-48.83016c0,-0.72931 -0.04301,-4.39209 -0.05735,-7.73563l31.1098,2.99943l1.0715,15.35369c0.12904,1.85051 1.60104,3.32346 3.45155,3.45633l36.8525,2.62952c1.94227,0.14242 3.66661,-1.24451 3.9505,-3.1734l2.11337,-14.3319h30.06984l2.11337,14.3319c0.2705,1.83904 1.85051,3.18295 3.6819,3.18295c0.08889,0 0.17874,-0.00287 0.26859,-0.00956l36.8525,-2.62952c1.85051,-0.13286 3.32251,-1.60581 3.45155,-3.45633l1.0715,-15.35369z" fill="url(#color-1)"/><path d="M146.34515,206.55764c-4.58231,-5.84975 -8.82625,-12.01398 -12.89144,-18.59018c5.40338,-9.1952 12.0178,-17.41258 19.09199,-25.02586c6.56281,3.30243 12.9335,7.0436 18.95244,11.02468c3.01281,-2.9937 6.41083,-5.44257 9.73812,-8.00231c3.27472,-2.62952 6.95949,-4.55746 10.46552,-6.80369c-1.04474,-7.75857 -1.55993,-15.39671 -1.7664,-23.36843c9.02793,-4.54407 18.65708,-7.55689 28.39138,-9.72092c3.8941,6.53509 7.44792,13.61215 10.54294,20.53053c3.6733,-0.61365 7.35999,-0.84114 11.06101,-0.88511v-0.00573c0.02294,0 0.04684,0.00573 0.06978,0.00573c0.02198,0 0.04588,-0.00573 0.07169,-0.00573v0.00573c3.69433,0.04397 7.38388,0.27146 11.05623,0.88511c3.09693,-6.91839 6.65266,-13.99544 10.54103,-20.53053c9.73908,2.16403 19.36727,5.17684 28.39616,9.72092c-0.20742,7.97172 -0.72262,15.60986 -1.76448,23.36843c3.49934,2.24623 7.18889,4.17416 10.46265,6.80369c3.33207,2.55974 6.72435,5.00861 9.73621,8.00231c6.01894,-3.98108 12.39154,-7.72225 18.95244,-11.02468c7.07419,7.61328 13.69244,15.83066 19.0939,25.02586c-4.06711,6.57619 -8.30818,12.74042 -12.89144,18.59018h-0.12808v51.92613l-0.01434,0.00478v4.50297c-0.10323,0.00096 -0.20551,0.00478 -0.30778,0.01434l-34.58428,3.33589c-1.81228,0.17587 -3.2317,1.63354 -3.35883,3.44964l-1.06576,15.27245l-30.18072,2.15351l-2.07896,-14.09581c-0.26955,-1.82757 -1.83713,-3.182 -3.68477,-3.182h-36.5017c-1.8486,0 -3.41618,1.35443 -3.68573,3.182l-2.07896,14.09581l-30.17976,-2.15351l-1.06672,-15.27245c-0.12617,-1.8161 -1.54655,-3.27472 -3.35883,-3.44964l-34.59766,-3.33589c-0.10228,-0.00956 -0.20551,-0.01338 -0.30874,-0.01434v-5.24949v-5.76851v-45.41589z" fill="url(#color-2)"/><path d="M333.56068,270.45669l-29.29178,4.74671l-0.95871,13.73928c-0.19404,2.7815 -2.43931,5.0306 -5.22177,5.23037l-36.85345,2.62857c-0.13286,0.00956 -0.26859,0.01434 -0.40432,0.01434c-2.7729,0 -5.16919,-2.07035 -5.57352,-4.81458l-1.87249,-12.69932h-26.76836l-1.87249,12.69932c-0.40528,2.74518 -2.79871,4.81553 -5.56778,4.81553c-0.13764,0 -0.27528,-0.00573 -0.41483,-0.01529l-36.84867,-2.62857c-2.78341,-0.19977 -5.02773,-2.44887 -5.22177,-5.23037l-0.95967,-13.73928l-29.30421,-4.72568l0.04684,-7.48424c0.17874,0 0.30969,-1.90786 0.48844,-1.89066l34.60149,3.33589c2.75187,0.26572 4.88913,2.46034 5.08221,5.2189l0.95011,13.61788l26.75594,1.90882l1.82088,-12.34183c0.40528,-2.74518 2.80253,-4.81458 5.57638,-4.81458h36.5017c2.77481,0 5.17206,2.0694 5.57734,4.81458l1.81992,12.34183l26.75594,-1.90882l0.95011,-13.61788c0.19308,-2.75761 2.33034,-4.95222 5.08221,-5.21794l34.58428,-3.33685c0.18161,-0.0172 0.49226,1.88874 0.49226,1.88874z" fill="#478cbf"/><path d="M211.80539,229.46603c0,11.51981 -9.3338,20.8517 -20.84979,20.8517c-11.51025,0 -20.84692,-9.33189 -20.84692,-20.8517c0,-11.51216 9.33667,-20.83927 20.84692,-20.83927c11.51599,0 20.84979,9.32711 20.84979,20.83927" fill="#ffffff"/><path d="M205.03853,232.07685c0,6.46776 -5.24202,11.70978 -11.71464,11.70978c-6.46939,0 -11.71464,-5.24202 -11.71464,-11.70978c0,-6.46776 5.24525,-11.71464 11.71464,-11.71464c6.47262,0 11.71464,5.24688 11.71464,11.71464" fill="#478cbf"/><path d="M239.99849,252.21469c-3.70676,0 -6.71097,-2.7318 -6.71097,-6.09923v-19.19427c0,-3.36456 3.00421,-6.09923 6.71097,-6.09923c3.70676,0 6.71766,2.73466 6.71766,6.09923v19.19427c0,3.36743 -3.0109,6.09923 -6.71766,6.09923" fill="#478cbf"/><path d="M268.19507,229.46603c0,-11.51216 9.3338,-20.83927 20.8517,-20.83927c11.5093,0 20.84501,9.32711 20.84501,20.83927c0,11.51981 -9.33571,20.8517 -20.84501,20.8517c-11.5179,0 -20.8517,-9.33189 -20.8517,-20.8517" fill="#ffffff"/><path d="M298.53853,231.82685c0,6.46776 -5.24202,11.70978 -11.71464,11.70978c-6.46939,0 -11.71464,-5.24202 -11.71464,-11.70978c0,-6.46776 5.24525,-11.71464 11.71464,-11.71464c6.47262,0 11.71464,5.24688 11.71464,11.71464" fill="#478cbf"/></g></g></svg>